<mxfile host="app.diagrams.net" modified="2022-10-17T13:36:42.682Z" agent="5.0 (Windows NT 10.0; Win64; x64) AppleWebKit/537.36 (KHTML, like Gecko) Chrome/106.0.0.0 Safari/537.36" etag="oY8I99EwplEXMADwNM0b" version="20.4.0" type="github">
  <diagram id="1ZSwXiSNdYYqJziJmsc9" name="Page-1">
    <mxGraphModel dx="1002" dy="674" grid="1" gridSize="10" guides="1" tooltips="1" connect="1" arrows="1" fold="1" page="1" pageScale="1" pageWidth="827" pageHeight="1169" math="0" shadow="0">
      <root>
        <mxCell id="0" />
        <mxCell id="1" parent="0" />
        <mxCell id="7I6LDp2iSFCCw0TSjybL-1" value="&lt;b&gt;&lt;font style=&quot;font-size: 17px;&quot;&gt;润水蒸料&lt;/font&gt;&lt;/b&gt;" style="rounded=0;whiteSpace=wrap;html=1;" vertex="1" parent="1">
          <mxGeometry x="300" y="270" width="180" height="30" as="geometry" />
        </mxCell>
        <mxCell id="7I6LDp2iSFCCw0TSjybL-3" value="" style="endArrow=classic;html=1;rounded=0;entryX=0.75;entryY=0;entryDx=0;entryDy=0;strokeWidth=2;" edge="1" parent="1" target="7I6LDp2iSFCCw0TSjybL-1">
          <mxGeometry width="50" height="50" relative="1" as="geometry">
            <mxPoint x="220" y="120" as="sourcePoint" />
            <mxPoint x="420" y="160" as="targetPoint" />
            <Array as="points">
              <mxPoint x="435" y="120" />
            </Array>
          </mxGeometry>
        </mxCell>
        <mxCell id="7I6LDp2iSFCCw0TSjybL-5" value="" style="endArrow=classic;html=1;rounded=0;entryX=0.5;entryY=0;entryDx=0;entryDy=0;strokeWidth=2;" edge="1" parent="1" target="7I6LDp2iSFCCw0TSjybL-1">
          <mxGeometry width="50" height="50" relative="1" as="geometry">
            <mxPoint x="220" y="160" as="sourcePoint" />
            <mxPoint x="442.5" y="290" as="targetPoint" />
            <Array as="points">
              <mxPoint x="390" y="160" />
            </Array>
          </mxGeometry>
        </mxCell>
        <mxCell id="7I6LDp2iSFCCw0TSjybL-6" value="" style="endArrow=classic;html=1;rounded=0;entryX=0.25;entryY=0;entryDx=0;entryDy=0;strokeWidth=2;" edge="1" parent="1" target="7I6LDp2iSFCCw0TSjybL-1">
          <mxGeometry width="50" height="50" relative="1" as="geometry">
            <mxPoint x="220" y="200" as="sourcePoint" />
            <mxPoint x="375" y="310" as="targetPoint" />
            <Array as="points">
              <mxPoint x="345" y="200" />
            </Array>
          </mxGeometry>
        </mxCell>
        <mxCell id="7I6LDp2iSFCCw0TSjybL-7" value="50.895t 黑豆豆粕" style="text;html=1;strokeColor=none;fillColor=none;align=left;verticalAlign=middle;whiteSpace=wrap;rounded=0;" vertex="1" parent="1">
          <mxGeometry x="220" y="180" width="120" height="20" as="geometry" />
        </mxCell>
        <mxCell id="7I6LDp2iSFCCw0TSjybL-8" value="33.930t 麸皮" style="text;html=1;strokeColor=none;fillColor=none;align=left;verticalAlign=middle;whiteSpace=wrap;rounded=0;" vertex="1" parent="1">
          <mxGeometry x="220" y="140" width="120" height="20" as="geometry" />
        </mxCell>
        <mxCell id="7I6LDp2iSFCCw0TSjybL-9" value="78.520t 水" style="text;html=1;strokeColor=none;fillColor=none;align=left;verticalAlign=middle;whiteSpace=wrap;rounded=0;" vertex="1" parent="1">
          <mxGeometry x="220" y="100" width="120" height="20" as="geometry" />
        </mxCell>
        <mxCell id="7I6LDp2iSFCCw0TSjybL-11" value="" style="edgeStyle=orthogonalEdgeStyle;rounded=0;orthogonalLoop=1;jettySize=auto;html=1;strokeWidth=2;fontFamily=Noto Sans Simplified Chinese;fontSource=https%3A%2F%2Ffonts.googleapis.com%2Fcss%3Ffamily%3DNoto%2BSans%2BSimplified%2BChinese;fontSize=17;" edge="1" parent="1" source="7I6LDp2iSFCCw0TSjybL-10" target="7I6LDp2iSFCCw0TSjybL-1">
          <mxGeometry relative="1" as="geometry" />
        </mxCell>
        <mxCell id="7I6LDp2iSFCCw0TSjybL-10" value="&lt;span style=&quot;font-size: 17px;&quot;&gt;&lt;b&gt;原料粉碎&lt;/b&gt;&lt;/span&gt;" style="rounded=0;whiteSpace=wrap;html=1;" vertex="1" parent="1">
          <mxGeometry x="140" y="270" width="130" height="30" as="geometry" />
        </mxCell>
        <mxCell id="7I6LDp2iSFCCw0TSjybL-14" value="" style="endArrow=classic;html=1;rounded=0;strokeWidth=2;" edge="1" parent="1">
          <mxGeometry width="50" height="50" relative="1" as="geometry">
            <mxPoint x="15" y="284.58" as="sourcePoint" />
            <mxPoint x="140" y="284.58" as="targetPoint" />
            <Array as="points" />
          </mxGeometry>
        </mxCell>
        <mxCell id="7I6LDp2iSFCCw0TSjybL-15" value="28.275t 干海带" style="text;html=1;strokeColor=none;fillColor=none;align=left;verticalAlign=middle;whiteSpace=wrap;rounded=0;" vertex="1" parent="1">
          <mxGeometry x="16" y="263" width="120" height="20" as="geometry" />
        </mxCell>
      </root>
    </mxGraphModel>
  </diagram>
</mxfile>
